<svg width="241" height="315" viewBox="0 0 241 315" fill="none" xmlns="http://www.w3.org/2000/svg">
<path d="M194.49 75V233H182.3V160.32C182.3 129.4 182.53 99.83 183.2 84.02C183.2 84.02 169.1 107.23 152.65 135.63C142.51 153.14 132.24 171.35 123.06 190.73H115.92C108.78 175.43 97.92 156.05 87.35 137.67C71 109.21 56.12 83.8 56.12 83.8C57.24 101.86 57.7 138.65 57.7 165.73V224H123.2L121.42 232.92H57.7V233H45.51V75H63.8C72.8047 94.8185 83.0552 114.047 94.49 132.57C100.24 142.01 104.56 149.94 108.78 157.06C113.33 164.73 117.63 171.42 120 176.45C120 176.45 131.44 156.9 146.53 130.53C156.03 113.93 166.94 94.82 176.43 75H194.49Z" fill="white"/>
<path d="M238 5V277H4L5 7L121.96 62L238 5Z" stroke="#33AA72" stroke-width="6" stroke-miterlimit="10"/>
<path d="M13 294.08H14.59V313.15H25.59L25.3 314.62H13V294.08Z" fill="white"/>
<path d="M28.97 307.46C28.97 311.25 30.9 313.59 33.72 313.59C34.6295 313.662 35.5373 313.431 36.3023 312.934C37.0672 312.437 37.6465 311.7 37.95 310.84H39.45C39.1095 312.089 38.3484 313.182 37.2953 313.934C36.2422 314.687 34.9617 315.052 33.67 314.97C29.21 314.97 27.48 311.13 27.48 307.4C27.48 303.21 29.56 299.6 33.85 299.6C38.37 299.6 39.85 303.5 39.85 306.26C39.85 306.67 39.85 307.08 39.85 307.46H28.97ZM38.27 306.17C38.27 303.27 36.66 300.98 33.78 300.98C30.9 300.98 29.38 303.09 29.06 306.17H38.27Z" fill="white"/>
<path d="M44.9599 293V302.42C45.4045 301.53 46.0993 300.789 46.9591 300.288C47.8189 299.787 48.8063 299.548 49.8 299.6C51.89 299.6 54.8 300.65 54.8 305.29V314.65H53.33V305.65C53.33 302.75 52.01 301.11 49.58 301.11C46.67 301.11 45 302.9 45 306.51V314.65H43.45V293H44.9599Z" fill="white"/>
<path d="M59.57 293H61.04V302.42C61.75 300.95 63.18 299.6 66.04 299.6C69.5 299.6 72.04 302.44 72.04 306.96C72.04 311.48 69.75 314.96 65.65 314.96C63.18 314.96 61.77 313.96 61.01 312.29C61.01 313.23 61.01 314.2 60.95 314.61H59.51C59.51 312.94 59.51 311.27 59.51 309.61L59.57 293ZM70.52 307C70.52 303.33 68.7 301 65.91 301C62.24 301 60.91 303.49 60.91 307.34C60.91 310.8 62.06 313.61 65.7 313.61C68.7 313.59 70.52 311.13 70.52 306.99V307Z" fill="white"/>
<path d="M85.78 311.83C85.7684 312.764 85.8353 313.697 85.98 314.62H84.57C84.4 313.879 84.3128 313.121 84.31 312.36C83.81 313.45 82.52 314.97 79.5 314.97C76.09 314.97 74.63 312.77 74.63 310.57C74.63 307.34 77.12 305.88 81.52 305.88H84.31V304.38C84.31 302.91 83.87 300.95 80.53 300.95C77.53 300.95 77.12 302.5 76.8 303.71H75.33C75.51 302.09 76.51 299.6 80.55 299.6C83.9 299.6 85.78 301.01 85.78 304.23V311.83ZM84.34 307.14H81.45C78.2 307.14 76.17 307.99 76.17 310.51C76.1621 310.944 76.2464 311.375 76.4171 311.774C76.5879 312.173 76.8414 312.531 77.1608 312.825C77.4802 313.119 77.8583 313.342 78.2701 313.479C78.682 313.616 79.1182 313.664 79.55 313.62C83.74 313.62 84.33 310.84 84.33 307.62L84.34 307.14Z" fill="white"/>
<path d="M90.6201 293H92.0901V302.42C92.7901 300.95 94.2301 299.6 97.0901 299.6C100.56 299.6 103.09 302.44 103.09 306.96C103.09 311.48 100.8 314.96 96.6901 314.96C94.2301 314.96 92.8201 313.96 92.0601 312.29C92.0601 313.23 92.0601 314.2 92.0001 314.61H90.5601C90.5601 312.94 90.5601 311.27 90.5601 309.61L90.6201 293ZM101.56 307C101.56 303.33 99.7501 301 96.9601 301C93.2901 301 91.9601 303.49 91.9601 307.34C91.9601 310.8 93.1001 313.61 96.7401 313.61C99.7501 313.59 101.56 311.13 101.56 306.99V307Z" fill="white"/>
<path d="M132.64 305.17C132.64 301.17 132.64 297.31 132.76 295.26H132.67C131.85 298.01 127.67 308.14 125.07 314.62H123.51C121.51 309.62 117.23 298.34 116.3 295.23H116.24C116.38 297.57 116.44 302.36 116.44 305.88V314.65H114.86V294.08H117.23C120.05 301.08 123.6 310.34 124.37 312.66H124.45C124.92 311.16 129.03 300.92 131.91 294.08H134.25V314.65H132.67L132.64 305.17Z" fill="white"/>
<path d="M138.27 300.1C139.002 297.797 139.445 295.412 139.59 293H141.09C140.875 295.42 140.364 297.804 139.57 300.1H138.27Z" fill="white"/>
<path d="M146.45 293V302.42C146.895 301.53 147.589 300.789 148.449 300.288C149.309 299.787 150.296 299.548 151.29 299.6C153.37 299.6 156.29 300.65 156.29 305.29V314.65H154.82V305.65C154.82 302.75 153.5 301.11 151.07 301.11C148.16 301.11 146.49 302.9 146.49 306.51V314.65H145.02V293H146.45Z" fill="white"/>
<path d="M170.99 311.83C170.98 312.764 171.051 313.698 171.2 314.62H169.79C169.609 313.88 169.519 313.121 169.52 312.36C169.03 313.45 167.73 314.97 164.71 314.97C161.31 314.97 159.84 312.77 159.84 310.57C159.84 307.34 162.34 305.88 166.74 305.88H169.52V304.38C169.52 302.91 169.08 300.95 165.74 300.95C162.74 300.95 162.34 302.5 162.01 303.71H160.55C160.72 302.09 161.72 299.6 165.77 299.6C169.11 299.6 170.99 301.01 170.99 304.23V311.83ZM169.55 307.14H166.68C163.42 307.14 161.4 307.99 161.4 310.51C161.391 310.943 161.474 311.374 161.643 311.773C161.813 312.172 162.065 312.53 162.384 312.825C162.703 313.119 163.08 313.342 163.492 313.479C163.903 313.616 164.339 313.664 164.77 313.62C168.97 313.62 169.55 310.84 169.55 307.62V307.14Z" fill="white"/>
<path d="M175.83 303.74C175.83 302.47 175.83 301.09 175.83 299.95H177.27C177.27 300.45 177.36 301.71 177.33 302.56C177.661 301.665 178.262 300.894 179.051 300.357C179.839 299.819 180.776 299.54 181.73 299.56C182.662 299.496 183.589 299.747 184.362 300.273C185.134 300.799 185.708 301.569 185.99 302.46C186.407 301.555 187.085 300.796 187.937 300.279C188.789 299.763 189.775 299.512 190.77 299.56C193.03 299.56 195.38 300.85 195.38 304.93V314.65H193.91V305.17C193.91 303.17 193.21 301.07 190.48 301.07C187.75 301.07 186.34 303.35 186.34 306.2V314.65H184.9V305.2C184.9 303.06 184.26 301.07 181.56 301.07C178.86 301.07 177.33 303.59 177.33 306.58V314.65H175.86L175.83 303.74Z" fill="white"/>
<path d="M200.45 307.46C200.45 311.25 202.39 313.59 205.21 313.59C206.118 313.663 207.026 313.433 207.789 312.935C208.553 312.437 209.13 311.701 209.43 310.84H210.93C210.588 312.088 209.826 313.18 208.774 313.932C207.721 314.684 206.441 315.051 205.15 314.97C200.69 314.97 198.96 311.13 198.96 307.4C198.96 303.21 201.04 299.6 205.32 299.6C209.84 299.6 211.32 303.5 211.32 306.26C211.32 306.67 211.32 307.08 211.32 307.46H200.45ZM209.75 306.17C209.75 303.27 208.14 300.98 205.27 300.98C202.27 300.98 200.86 303.09 200.54 306.17H209.75Z" fill="white"/>
<path d="M226.36 293V310.4C226.36 311.8 226.36 313.15 226.36 314.62H224.96C224.9 314.27 224.87 312.89 224.87 312.16C224.13 313.95 222.49 314.97 219.94 314.97C216.12 314.97 213.83 311.86 213.83 307.46C213.83 303.06 216.33 299.6 220.32 299.6C223.25 299.6 224.43 300.86 224.87 301.8V293H226.36ZM215.45 307.4C215.45 311.4 217.53 313.59 220.06 313.59C223.93 313.59 224.99 310.92 224.99 306.93C224.99 303.15 224.08 300.98 220.32 300.98C217.39 300.98 215.45 303.3 215.45 307.4Z" fill="white"/>
</svg>
